<svg id="Ebene_1" data-name="Ebene 1" xmlns="http://www.w3.org/2000/svg" viewBox="0 0 1065 168"><title>logowaagerecht</title><path d="M168.72,96.64v45.08h-14V96.79q0-10.76-4.21-15.68T136.74,76.2q-20.28,0-20.28,21.22v44.3h-14V99.6q0-13.11-4.6-18.25T84.48,76.2a28.19,28.19,0,0,0-12.17,2.5,17.69,17.69,0,0,0-8.11,7.48v55.54h-14V65.28H61.08l1.56,8.11A38.67,38.67,0,0,1,74.26,66a34.7,34.7,0,0,1,12.56-2.26q17.48,0,24.65,15.29,7.95-15.29,27.92-15.29Q168.72,63.72,168.72,96.64Z"/><path d="M188.45,137A21.15,21.15,0,0,1,182,121.13q0-14.5,13.73-20.75t32-6.55q0-10.31-4-14T211,76.2a32.78,32.78,0,0,0-9.67,1.48,38.87,38.87,0,0,0-10.45,5.38l-2-11.38a37.4,37.4,0,0,1,11.55-5.78,47.2,47.2,0,0,1,14.35-2.18q9.82,0,15.68,3.43T239,78.54q2.72,8,2.73,21.84V116a61.2,61.2,0,0,0,.54,9.44,8.28,8.28,0,0,0,2.42,4.91q1.88,1.72,5.77,1.72h1.41l-2.19,11.23h-1.09a33.85,33.85,0,0,1-10.3-1.25,12.23,12.23,0,0,1-5.69-3.59,25.85,25.85,0,0,1-3.67-6.39q-9.68,11.23-23.4,11.23Q194.93,143.28,188.45,137Zm30.58-7.8a25.67,25.67,0,0,0,8.66-7.49V103.5q-16.86.63-24.11,4.45t-7.25,12.4q0,5.93,3.2,8.81c2.13,1.93,5,2.89,8.66,2.89A22.66,22.66,0,0,0,219,129.24Z"/><path d="M263.41,65.28H275l1.72,12.64A49.57,49.57,0,0,1,288,67.15a20.79,20.79,0,0,1,11.31-3.43,13.7,13.7,0,0,1,3.59.47l-1.41,15.44a21,21,0,0,0-4.68-.47,24,24,0,0,0-10.92,2.58,19.19,19.19,0,0,0-7.49,6v54h-15Z"/><path d="M313.48,32.52h14v15.6h-14Zm0,32.76h14v76.44h-14Z"/><path d="M348,137a21.13,21.13,0,0,1-6.48-15.91q0-14.5,13.73-20.75t32-6.55q0-10.31-4-14T370.58,76.2a32.73,32.73,0,0,0-9.67,1.48,38.92,38.92,0,0,0-10.46,5.38l-2-11.38A37.34,37.34,0,0,1,360,65.9a47.2,47.2,0,0,1,14.35-2.18q9.82,0,15.68,3.43t8.58,11.39q2.73,8,2.73,21.84V116a59.7,59.7,0,0,0,.55,9.44,8.33,8.33,0,0,0,2.41,4.91c1.25,1.15,3.17,1.72,5.78,1.72h1.4l-2.18,11.23h-1.1A33.78,33.78,0,0,1,397.88,142a12.21,12.21,0,0,1-5.7-3.59,25.54,25.54,0,0,1-3.66-6.39q-9.67,11.23-23.4,11.23Q354.5,143.28,348,137Zm30.57-7.8a25.67,25.67,0,0,0,8.66-7.49V103.5q-16.84.63-24.1,4.45t-7.26,12.4q0,5.93,3.2,8.81t8.66,2.89A22.64,22.64,0,0,0,378.61,129.24Z"/><path d="M464.72,141.17a38.28,38.28,0,0,1-10.37-4.6L456.06,123a31.38,31.38,0,0,0,9.6,5.3,39.2,39.2,0,0,0,14.27,2.5q7.33,0,11.31-2.5a7.85,7.85,0,0,0,4-7,8.89,8.89,0,0,0-4.37-8,42.85,42.85,0,0,0-10.92-4.6,87.84,87.84,0,0,1-12.09-4,21.56,21.56,0,0,1-8.42-6.47q-3.51-4.36-3.51-11.55a21.48,21.48,0,0,1,7-16.38q7-6.55,21.68-6.55A42,42,0,0,1,496,65.05a53.26,53.26,0,0,1,9.36,3.66L503.64,81.5a30.46,30.46,0,0,0-8.27-4.91,28.31,28.31,0,0,0-10.45-1.79q-6.85,0-10.84,2.57a8.59,8.59,0,0,0-4,7.72A8,8,0,0,0,472,90.63a14.09,14.09,0,0,0,5.3,3.51q3.44,1.41,10.61,3.59a48.56,48.56,0,0,1,15.36,7.49q6.48,4.83,6.48,15.28a22.05,22.05,0,0,1-6.63,16.07q-6.63,6.7-22.55,6.71A53.38,53.38,0,0,1,464.72,141.17Z"/><path d="M537.88,138.13A33.19,33.19,0,0,1,524.39,124a43.82,43.82,0,0,1-4.53-20q0-18.1,10.22-29.17t30.34-11.08a46.23,46.23,0,0,1,20.91,4.52l-2.19,12.33a45.31,45.31,0,0,0-19-4.37q-12.48,0-19.19,7.1t-6.7,20q0,13,6.47,20.28T559.8,131a43.07,43.07,0,0,0,19.5-4.68l1.87,11.23a32.9,32.9,0,0,1-9.44,4.05,44.63,44.63,0,0,1-12.4,1.72Q546.85,143.28,537.88,138.13Z"/><path d="M654.49,73.24q7.65,9.51,7.65,25.89v42.59h-14V100.85q0-12.64-4.61-18.64t-14.27-6a22.4,22.4,0,0,0-10.92,2.73,24.3,24.3,0,0,0-8.42,7.72v55.07h-14.2v-117h14.2V72.61a30.16,30.16,0,0,1,22.46-8.89Q646.85,63.72,654.49,73.24Z"/><path d="M695.44,137.9a35.9,35.9,0,0,1-14.12-14.59,43.28,43.28,0,0,1-4.83-20.43,43.88,43.88,0,0,1,4.44-19.74,34.12,34.12,0,0,1,13-14.19q8.5-5.24,20-5.23,14.66,0,23.79,8.58T746.84,96a44.27,44.27,0,0,1-.62,7.49H690.84q1.39,14.82,9,21.06t19.65,6.24a52.79,52.79,0,0,0,22-4.52l1.87,11.07a62.44,62.44,0,0,1-25.58,5.93Q704.72,143.28,695.44,137.9Zm36.89-44.07q0-8.26-4.68-13t-14-4.68q-9,0-14.19,4.45t-7.33,13.18Z"/><path d="M761.82,65.28h11.54l1.72,12.64a49.57,49.57,0,0,1,11.31-10.77,20.74,20.74,0,0,1,11.31-3.43,13.62,13.62,0,0,1,3.58.47l-1.4,15.44a21,21,0,0,0-4.68-.47,24,24,0,0,0-10.92,2.58,19.19,19.19,0,0,0-7.49,6v54h-15Z"/><path d="M816.49,138a18.94,18.94,0,0,1-4.76-13.11V24.72h14v92a41.47,41.47,0,0,0,.86,10A6,6,0,0,0,830,131c1.66.72,4.36,1.09,8.11,1.09l-2,11.23h-4.52Q821.24,143.28,816.49,138Z"/><path d="M849.48,32.52h14v15.6h-14Zm0,32.76h14v76.44h-14Z"/><path d="M897.61,137.9a35.9,35.9,0,0,1-14.12-14.59,43.28,43.28,0,0,1-4.83-20.43,43.88,43.88,0,0,1,4.44-19.74A34.12,34.12,0,0,1,896.05,69q8.51-5.24,20-5.23,14.67,0,23.8,8.58T949,96a44.27,44.27,0,0,1-.62,7.49H893q1.4,14.82,9,21.06t19.65,6.24a52.79,52.79,0,0,0,22-4.52l1.87,11.07A62.45,62.45,0,0,1,920,143.28Q906.9,143.28,897.61,137.9ZM934.5,93.83q0-8.26-4.68-13t-14-4.68q-9,0-14.19,4.45t-7.33,13.18Z"/><path d="M969.84,141.17a38.22,38.22,0,0,1-10.38-4.6L961.18,123a31.31,31.31,0,0,0,9.59,5.3,39.26,39.26,0,0,0,14.28,2.5q7.32,0,11.3-2.5a7.83,7.83,0,0,0,4-7,8.87,8.87,0,0,0-4.37-8,42.92,42.92,0,0,0-10.91-4.6,86.94,86.94,0,0,1-12.09-4,21.59,21.59,0,0,1-8.43-6.47Q961,93.84,961,86.65a21.48,21.48,0,0,1,7-16.38q7-6.55,21.68-6.55a42,42,0,0,1,11.39,1.33,53.26,53.26,0,0,1,9.36,3.66l-1.71,12.79a30.76,30.76,0,0,0-8.27-4.91A28.35,28.35,0,0,0,990,74.8q-6.87,0-10.84,2.57a8.57,8.57,0,0,0-4,7.72,8,8,0,0,0,1.87,5.54,14.17,14.17,0,0,0,5.3,3.51q3.43,1.41,10.61,3.59a48.61,48.61,0,0,1,15.37,7.49q6.46,4.83,6.47,15.28a22.05,22.05,0,0,1-6.63,16.07q-6.63,6.7-22.54,6.71A53.33,53.33,0,0,1,969.84,141.17Z"/></svg>